<?xml version="1.0" standalone="no"?>
<!DOCTYPE svg PUBLIC "-//W3C//DTD SVG 20010904//EN"
 "http://www.w3.org/TR/2001/REC-SVG-20010904/DTD/svg10.dtd">
<svg version="1.0" xmlns="http://www.w3.org/2000/svg"
 width="700.000000pt" height="700.000000pt" viewBox="0 0 700.000000 700.000000"
 preserveAspectRatio="xMidYMid meet">
<metadata>
Created by potrace 1.14, written by Peter Selinger 2001-2017
</metadata>
<g transform="translate(0.000000,700.000000) scale(0.100000,-0.100000)"
fill="#000000" stroke="none">
<path d="M1024 6118 c-164 -29 -303 -154 -350 -314 -16 -55 -17 -202 -17
-2309 l0 -2250 22 -65 c13 -36 39 -86 58 -112 39 -54 121 -124 173 -150 91
-45 29 -44 2390 -43 2051 1 2239 3 2288 18 30 9 70 26 90 38 56 33 140 118
172 174 49 87 56 136 56 402 l-1 243 216 0 c165 0 218 3 221 13 2 6 3 104 3
217 l-1 205 -190 2 c-104 1 -202 2 -219 2 l-30 1 0 545 0 545 60 1 c33 0 132
1 220 2 l160 2 0 205 c0 113 -1 210 -3 217 -2 8 -55 11 -180 12 -97 0 -195 0
-217 0 l-40 1 1 540 c0 297 3 543 7 546 4 4 101 7 216 6 151 0 211 3 213 11 3
10 2 397 -1 420 -1 4 -99 7 -218 7 l-218 0 1 243 c0 133 -4 260 -8 282 -32
146 -164 289 -307 332 -52 16 -234 17 -2292 17 -1230 1 -2254 -2 -2275 -6z
m4446 -2618 l0 -2189 -2185 1 c-2005 1 -2185 2 -2189 17 -3 14 -1 4336 3 4352
0 4 984 6 2186 6 l2185 1 0 -2188z"/>
<path d="M1530 4340 l0 -910 48 -1 c72 0 1733 0 1767 0 l31 1 -1 910 0 910
-922 0 -923 0 0 -910z"/>
<path d="M3595 4728 l0 -523 718 -3 717 -2 0 525 0 525 -718 0 -717 0 0 -522z"/>
<path d="M3730 3980 l-135 -5 0 -1112 0 -1113 717 0 718 0 0 1115 0 1115 -297
0 c-164 0 -426 2 -583 3 -157 1 -346 0 -420 -3z"/>
<path d="M1530 2479 l0 -729 923 0 922 0 0 728 0 727 -922 2 -923 2 0 -730z"/>
</g>
</svg>
